<?xml version="1.0" encoding="utf-8"?>
<!-- Generator: Adobe Illustrator 26.0.0, SVG Export Plug-In . SVG Version: 6.00 Build 0)  -->
<svg version="1.1" id="Layer_1" xmlns="http://www.w3.org/2000/svg" xmlns:xlink="http://www.w3.org/1999/xlink" x="0px" y="0px"
	 viewBox="0 0 527.1 527.1" style="enable-background:new 0 0 527.1 527.1;" xml:space="preserve">
<style type="text/css">
	.st0{fill:#FFFFFF;}
	.st1{fill:#FDB713;}
</style>
<g>
	<path class="st0" d="M263.5,0C193.6,0,126.6,27.8,77.2,77.2S0,193.6,0,263.5s27.8,136.9,77.2,186.3s116.4,77.2,186.3,77.2
		s136.9-27.8,186.3-77.2s77.2-116.5,77.2-186.3c-0.1-69.9-27.9-136.9-77.3-186.2C400.4,27.9,333.4,0.1,263.5,0L263.5,0z
		 M263.5,494.1L263.5,494.1c-61.2,0-119.8-24.3-163.1-67.5c-43.2-43.2-67.5-101.9-67.5-163s24.3-119.8,67.5-163.1
		c43.2-43.2,101.9-67.5,163.1-67.5s119.8,24.3,163,67.5c43.2,43.2,67.5,101.9,67.5,163.1c-0.1,61.1-24.4,119.8-67.6,163
		C383.3,469.7,324.7,494.1,263.5,494.1L263.5,494.1z"/>
	<path class="st0" d="M263.5,240.2L182,158.7c-4.2-4-10.2-5.6-15.8-4c-5.6,1.5-10,5.9-11.5,11.5c-1.5,5.6,0,11.6,4,15.8l81.5,81.5
		l-81.5,81.5c-3.2,3.1-5,7.3-5,11.7c0,4.4,1.7,8.7,4.8,11.8s7.4,4.9,11.8,4.8c4.4,0,8.6-1.9,11.7-5l81.5-81.5l81.5,81.5
		c4.2,4,10.2,5.6,15.8,4c5.6-1.5,10-5.9,11.5-11.5c1.5-5.6,0-11.6-4-15.8l-81.5-81.5"/>
</g>
<path class="st1" d="M303.5,246.8l64.8-64.8c3.1-3.1,4.8-7.3,4.8-11.6c0-4.4-1.7-8.6-4.8-11.6l0,0c-3.1-3.1-7.3-4.8-11.6-4.8
	c-4.4,0-8.6,1.7-11.6,4.8l-64.8,64.8L303.5,246.8z"/>
</svg>
