<?xml version="1.0" encoding="utf-8"?>
<!-- Generator: Adobe Illustrator 25.4.0, SVG Export Plug-In . SVG Version: 6.00 Build 0)  -->
<svg version="1.1" id="Layer_1" xmlns="http://www.w3.org/2000/svg" xmlns:xlink="http://www.w3.org/1999/xlink" x="0px" y="0px"
	 viewBox="0 0 21.5 18.5" style="enable-background:new 0 0 21.5 18.5;" xml:space="preserve">
<style type="text/css">
	.st0{clip-path:url(#SVGID_00000098924263782596853730000008114327107976545931_);fill:#274640;}
</style>
<g>
	<defs>
		<rect id="SVGID_1_" width="21.5" height="18.5"/>
	</defs>
	<clipPath id="SVGID_00000057147973043907738350000013345262008733082762_">
		<use xlink:href="#SVGID_1_"  style="overflow:visible;"/>
	</clipPath>
	<path style="clip-path:url(#SVGID_00000057147973043907738350000013345262008733082762_);fill:#274640;" d="M15.75,18.5h-10
		C2.1,18.5,0,16.4,0,12.75v-7C0,2.1,2.1,0,5.75,0h10c3.65,0,5.75,2.1,5.75,5.75v7C21.5,16.4,19.4,18.5,15.75,18.5 M5.75,1.5
		C2.89,1.5,1.5,2.89,1.5,5.75v7C1.5,15.61,2.89,17,5.75,17h10c2.86,0,4.25-1.39,4.25-4.25v-7c0-2.86-1.39-4.25-4.25-4.25H5.75z"/>
	<path style="clip-path:url(#SVGID_00000057147973043907738350000013345262008733082762_);fill:#274640;" d="M10.74,10.12
		c-0.84,0-1.69-0.26-2.34-0.78l-3.12-2.5C4.96,6.58,4.91,6.1,5.16,5.78C5.42,5.46,5.9,5.4,6.22,5.67l3.12,2.5
		c0.76,0.6,2.05,0.61,2.81,0l3.13-2.5c0.32-0.26,0.8-0.2,1.05,0.12c0.26,0.32,0.21,0.8-0.12,1.05l-3.13,2.5
		C12.43,9.86,11.59,10.12,10.74,10.12"/>
</g>
</svg>
