<?xml version="1.0" encoding="utf-8"?>
<!-- Generator: Adobe Illustrator 25.4.0, SVG Export Plug-In . SVG Version: 6.00 Build 0)  -->
<svg version="1.1" id="Layer_1" xmlns="http://www.w3.org/2000/svg" xmlns:xlink="http://www.w3.org/1999/xlink" x="0px" y="0px"
	 viewBox="0 0 21.5 21.5" style="enable-background:new 0 0 21.5 21.5;" xml:space="preserve">
<style type="text/css">
	.st0{clip-path:url(#SVGID_00000085950419100749994810000008188216825956402852_);fill:#274640;}
</style>
<g>
	<defs>
		<rect id="SVGID_1_" y="0" width="21.5" height="21.5"/>
	</defs>
	<clipPath id="SVGID_00000096047040936381547900000015144587097125504440_">
		<use xlink:href="#SVGID_1_"  style="overflow:visible;"/>
	</clipPath>
	<path style="clip-path:url(#SVGID_00000096047040936381547900000015144587097125504440_);fill:#274640;" d="M10.6,12.28
		c0.04,0,0.13,0,0.17-0.01c0.03,0.01,0.07,0.01,0.1,0.01h0.03c2.17-0.07,3.87-1.84,3.88-4.02c0-2.22-1.81-4.03-4.03-4.03
		S6.72,6.04,6.72,8.26C6.72,10.44,8.43,12.21,10.6,12.28 M10.75,5.73c1.39,0,2.53,1.14,2.53,2.53c-0.01,1.35-1.05,2.45-2.39,2.52
		c-0.09-0.01-0.19-0.01-0.28,0c-1.34-0.07-2.39-1.17-2.39-2.52C8.22,6.87,9.35,5.73,10.75,5.73"/>
	<path style="clip-path:url(#SVGID_00000096047040936381547900000015144587097125504440_);fill:#274640;" d="M21.5,10.75
		C21.5,4.82,16.68,0,10.75,0C4.82,0,0,4.82,0,10.75c0,3.12,1.34,5.93,3.47,7.89c0.01,0.01,0.02,0.03,0.03,0.04
		c0.07,0.06,0.14,0.12,0.21,0.18c0.12,0.11,0.25,0.21,0.37,0.31c0.15,0.12,0.3,0.23,0.45,0.34c0.12,0.08,0.24,0.17,0.37,0.25
		c0.17,0.11,0.34,0.21,0.51,0.31c0.12,0.07,0.24,0.14,0.37,0.21c0.18,0.09,0.36,0.18,0.55,0.26c0.12,0.06,0.25,0.11,0.38,0.17
		c0.19,0.08,0.38,0.14,0.58,0.21c0.13,0.04,0.26,0.09,0.39,0.13c0.2,0.06,0.41,0.11,0.62,0.16c0.13,0.03,0.25,0.06,0.38,0.09
		c0.24,0.05,0.49,0.08,0.73,0.11c0.1,0.01,0.19,0.03,0.29,0.04c0.35,0.03,0.7,0.06,1.06,0.06c0.36,0,0.71-0.02,1.06-0.06
		c0.1-0.01,0.19-0.03,0.29-0.04c0.24-0.03,0.49-0.06,0.73-0.11c0.13-0.02,0.25-0.06,0.38-0.09c0.21-0.05,0.42-0.1,0.62-0.16
		c0.13-0.04,0.26-0.09,0.39-0.13c0.19-0.07,0.39-0.13,0.58-0.21c0.13-0.05,0.25-0.11,0.38-0.17c0.18-0.08,0.37-0.17,0.55-0.26
		c0.12-0.07,0.24-0.13,0.36-0.2c0.17-0.1,0.34-0.2,0.51-0.31c0.12-0.08,0.24-0.16,0.36-0.25c0.15-0.11,0.31-0.22,0.45-0.34
		c0.12-0.1,0.25-0.2,0.36-0.31c0.07-0.06,0.15-0.12,0.22-0.18c0.01-0.01,0.02-0.03,0.03-0.04C20.16,16.68,21.5,13.87,21.5,10.75
		 M1.5,10.75c0-5.1,4.15-9.25,9.25-9.25c5.1,0,9.25,4.15,9.25,9.25c0,2.27-0.83,4.35-2.19,5.96c-0.36-0.67-0.93-1.28-1.67-1.78
		c-2.96-1.98-7.79-1.98-10.78,0c-0.75,0.5-1.32,1.11-1.67,1.78C2.33,15.1,1.5,13.02,1.5,10.75 M16.65,17.87
		c-0.06,0.05-0.12,0.09-0.19,0.14c-0.16,0.13-0.33,0.26-0.5,0.37c-0.08,0.05-0.16,0.1-0.23,0.15c-0.16,0.1-0.33,0.21-0.49,0.3
		c-0.09,0.05-0.18,0.09-0.27,0.14c-0.16,0.08-0.33,0.17-0.49,0.24c-0.1,0.04-0.2,0.09-0.3,0.12c-0.16,0.07-0.33,0.13-0.5,0.18
		c-0.11,0.03-0.21,0.07-0.32,0.1c-0.18,0.05-0.35,0.1-0.53,0.14c-0.1,0.02-0.21,0.05-0.31,0.07c-0.2,0.04-0.41,0.07-0.61,0.09
		c-0.08,0.01-0.16,0.02-0.25,0.03C11.35,19.98,11.05,20,10.75,20c-0.3,0-0.6-0.02-0.89-0.05c-0.08-0.01-0.16-0.02-0.25-0.03
		C9.4,19.9,9.2,19.87,8.99,19.83c-0.1-0.02-0.21-0.05-0.31-0.07c-0.18-0.04-0.36-0.09-0.53-0.14c-0.11-0.03-0.21-0.06-0.32-0.1
		c-0.17-0.06-0.34-0.12-0.51-0.19c-0.1-0.04-0.2-0.08-0.3-0.12c-0.17-0.07-0.33-0.16-0.5-0.24c-0.09-0.05-0.18-0.09-0.27-0.14
		c-0.17-0.1-0.33-0.2-0.5-0.3c-0.08-0.05-0.16-0.1-0.23-0.15c-0.17-0.12-0.34-0.24-0.5-0.37c-0.06-0.05-0.13-0.09-0.19-0.14
		c-0.01-0.01-0.01-0.01-0.02-0.02c0.18-0.61,0.66-1.19,1.36-1.67c2.48-1.65,6.65-1.65,9.11,0c0.71,0.48,1.19,1.06,1.37,1.67
		C16.66,17.85,16.66,17.86,16.65,17.87"/>
</g>
</svg>
