<?xml version="1.0" encoding="utf-8"?>
<!-- Generator: Adobe Illustrator 25.4.0, SVG Export Plug-In . SVG Version: 6.00 Build 0)  -->
<svg version="1.1" id="Layer_1" xmlns="http://www.w3.org/2000/svg" xmlns:xlink="http://www.w3.org/1999/xlink" x="0px" y="0px"
	 viewBox="0 0 21.47 21.5" style="enable-background:new 0 0 21.47 21.5;" xml:space="preserve">
<style type="text/css">
	.st0{clip-path:url(#SVGID_00000145744030153508139350000014929884545715187380_);fill:#274640;}
</style>
<g>
	<defs>
		<rect id="SVGID_1_" width="21.47" height="21.5"/>
	</defs>
	<clipPath id="SVGID_00000160875804841733642270000009794842908354962347_">
		<use xlink:href="#SVGID_1_"  style="overflow:visible;"/>
	</clipPath>
	<path style="clip-path:url(#SVGID_00000160875804841733642270000009794842908354962347_);fill:#274640;" d="M16.2,21.5
		c-1.13,0-2.32-0.27-3.55-0.79c-1.21-0.51-2.41-1.21-3.59-2.06c-1.18-0.86-2.31-1.83-3.37-2.87c-1.06-1.07-2.02-2.2-2.87-3.36
		c-0.86-1.2-1.55-2.4-2.04-3.56C0.26,7.63,0,6.43,0,5.29c0-0.78,0.14-1.52,0.41-2.21C0.7,2.37,1.14,1.71,1.75,1.14
		C2.51,0.39,3.39,0,4.34,0c0.4,0,0.79,0.09,1.13,0.25c0.39,0.18,0.72,0.45,0.96,0.81l2.31,3.27C8.96,4.62,9.12,4.9,9.23,5.18
		c0.13,0.3,0.19,0.6,0.19,0.89c0,0.38-0.11,0.75-0.32,1.1C8.96,7.44,8.73,7.73,8.44,8.02L7.76,8.73C7.77,8.76,7.78,8.78,7.78,8.8
		C7.9,9.01,8.14,9.36,8.6,9.91c0.44,0.5,0.9,1.02,1.41,1.54c0.61,0.6,1.09,1.04,1.54,1.42c0.57,0.48,0.94,0.72,1.15,0.83l-0.01,0.06
		l0.74-0.73c0.31-0.31,0.61-0.54,0.9-0.69c0.55-0.34,1.25-0.4,1.95-0.11c0.26,0.11,0.53,0.26,0.83,0.46l3.32,2.36
		c0.36,0.25,0.64,0.57,0.8,0.95c0.15,0.39,0.22,0.73,0.22,1.08c0,0.48-0.11,0.96-0.32,1.41c-0.21,0.45-0.47,0.84-0.8,1.2
		c-0.57,0.63-1.2,1.08-1.91,1.37C17.74,21.35,16.99,21.5,16.2,21.5 M4.34,1.5c-0.55,0-1.06,0.24-1.55,0.72
		c-0.45,0.43-0.78,0.9-0.98,1.41C1.6,4.15,1.5,4.7,1.5,5.29c0,0.94,0.22,1.94,0.66,2.98c0.45,1.06,1.08,2.15,1.88,3.26
		c0.8,1.1,1.71,2.17,2.71,3.18c1,0.99,2.07,1.91,3.19,2.72c1.08,0.79,2.19,1.43,3.29,1.9c1.71,0.73,3.31,0.9,4.63,0.35
		c0.51-0.21,0.96-0.53,1.37-0.99c0.23-0.25,0.41-0.52,0.56-0.84c0.12-0.25,0.18-0.51,0.18-0.77c0-0.16-0.03-0.32-0.11-0.5
		c-0.02-0.05-0.09-0.17-0.28-0.3l-3.32-2.35c-0.2-0.14-0.39-0.24-0.55-0.31c-0.26-0.11-0.43-0.11-0.65,0.03
		c-0.19,0.1-0.38,0.25-0.58,0.45l-0.76,0.75c-0.38,0.39-0.99,0.47-1.45,0.3l-0.27-0.12c-0.41-0.22-0.89-0.56-1.42-1.01
		c-0.48-0.41-0.99-0.88-1.63-1.51c-0.49-0.5-0.97-1.03-1.49-1.62c-0.47-0.56-0.81-1.03-1.02-1.41l-0.12-0.3
		C6.26,8.95,6.24,8.82,6.24,8.68c0-0.36,0.13-0.68,0.38-0.93l0.75-0.78c0.2-0.2,0.35-0.39,0.45-0.56C7.9,6.28,7.93,6.17,7.93,6.07
		c0-0.04-0.01-0.15-0.08-0.31C7.78,5.58,7.67,5.4,7.53,5.2L5.21,1.92c-0.1-0.14-0.22-0.24-0.37-0.31C4.68,1.54,4.51,1.5,4.34,1.5
		 M12.7,13.76l-0.15,0.68l0.27-0.7C12.77,13.73,12.73,13.74,12.7,13.76 M12.67,13.78L12.67,13.78L12.67,13.78z"/>
</g>
</svg>
