<?xml version="1.0" encoding="utf-8"?>
<!-- Generator: Adobe Illustrator 25.4.0, SVG Export Plug-In . SVG Version: 6.00 Build 0)  -->
<svg version="1.1" id="Layer_1" xmlns="http://www.w3.org/2000/svg" xmlns:xlink="http://www.w3.org/1999/xlink" x="0px" y="0px"
	 viewBox="0 0 28.41 28.41" style="enable-background:new 0 0 28.41 28.41;" xml:space="preserve">
<style type="text/css">
	.st0{fill:#FDB614;}
</style>
<path class="st0" d="M14.2,0C6.34,0,0,6.34,0,14.2s6.34,14.2,14.2,14.2c7.86,0,14.2-6.34,14.2-14.2S22.06,0,14.2,0z M18.31,20.2
	c-1.36-1.36-2.75-2.75-4.1-4.1c-1.36,1.36-2.75,2.75-4.1,4.1c-1.23,1.23-3.09-0.66-1.89-1.89c1.36-1.36,2.75-2.75,4.1-4.1
	c-1.36-1.36-2.75-2.75-4.1-4.1C6.98,8.87,8.87,7.01,10.1,8.21l4.1,4.1l4.1-4.1c1.23-1.23,3.09,0.66,1.89,1.89
	c-1.36,1.36-2.75,2.75-4.1,4.1c1.36,1.36,2.75,2.75,4.1,4.1C21.4,19.51,19.51,21.4,18.31,20.2L18.31,20.2z"/>
<g>
</g>
<g>
</g>
<g>
</g>
<g>
</g>
<g>
</g>
<g>
</g>
</svg>
